<mxfile host="app.diagrams.net" modified="2020-09-03T20:53:47.238Z" agent="5.0 (Windows NT 10.0; Win64; x64) AppleWebKit/537.36 (KHTML, like Gecko) Chrome/85.0.4183.83 Safari/537.36" etag="TnCzgLiM6IlwFHZM_fK_" version="13.6.6" type="github">
  <diagram id="aTzf6-efnMEgUfTCw8PY" name="Page-1">
    <mxGraphModel dx="2009" dy="1862" grid="1" gridSize="10" guides="1" tooltips="1" connect="1" arrows="1" fold="1" page="1" pageScale="1" pageWidth="827" pageHeight="1169" math="0" shadow="0">
      <root>
        <mxCell id="0" />
        <mxCell id="1" parent="0" />
        <mxCell id="53Lpqn_PctSAP0vNrlrL-2" value="Tipo" style="whiteSpace=wrap;html=1;align=center;fillColor=#cdeb8b;strokeColor=#36393d;" parent="1" vertex="1">
          <mxGeometry x="60" y="80" width="100" height="40" as="geometry" />
        </mxCell>
        <mxCell id="53Lpqn_PctSAP0vNrlrL-3" value="Control Mensual" style="whiteSpace=wrap;html=1;align=center;fillColor=#cdeb8b;strokeColor=#36393d;" parent="1" vertex="1">
          <mxGeometry x="580" y="280" width="100" height="40" as="geometry" />
        </mxCell>
        <mxCell id="53Lpqn_PctSAP0vNrlrL-4" value="Usuario" style="whiteSpace=wrap;html=1;align=center;fillColor=#cdeb8b;strokeColor=#36393d;" parent="1" vertex="1">
          <mxGeometry x="350" y="80" width="100" height="40" as="geometry" />
        </mxCell>
        <mxCell id="53Lpqn_PctSAP0vNrlrL-6" value="Calendario" style="whiteSpace=wrap;html=1;align=center;fillColor=#cdeb8b;strokeColor=#36393d;" parent="1" vertex="1">
          <mxGeometry x="160" y="280" width="100" height="40" as="geometry" />
        </mxCell>
        <mxCell id="53Lpqn_PctSAP0vNrlrL-7" value="Recordatorio" style="whiteSpace=wrap;html=1;align=center;fillColor=#cdeb8b;strokeColor=#36393d;" parent="1" vertex="1">
          <mxGeometry x="160" y="440" width="100" height="40" as="geometry" />
        </mxCell>
        <mxCell id="53Lpqn_PctSAP0vNrlrL-8" value="Obstetra" style="whiteSpace=wrap;html=1;align=center;fillColor=#cdeb8b;strokeColor=#36393d;" parent="1" vertex="1">
          <mxGeometry x="580" y="440" width="100" height="40" as="geometry" />
        </mxCell>
        <mxCell id="53Lpqn_PctSAP0vNrlrL-16" style="edgeStyle=orthogonalEdgeStyle;rounded=0;orthogonalLoop=1;jettySize=auto;html=1;exitX=0;exitY=0.5;exitDx=0;exitDy=0;entryX=1;entryY=0.5;entryDx=0;entryDy=0;" parent="1" source="53Lpqn_PctSAP0vNrlrL-9" target="53Lpqn_PctSAP0vNrlrL-2" edge="1">
          <mxGeometry relative="1" as="geometry" />
        </mxCell>
        <mxCell id="53Lpqn_PctSAP0vNrlrL-18" style="edgeStyle=orthogonalEdgeStyle;rounded=0;orthogonalLoop=1;jettySize=auto;html=1;entryX=0;entryY=0.5;entryDx=0;entryDy=0;" parent="1" source="53Lpqn_PctSAP0vNrlrL-9" target="53Lpqn_PctSAP0vNrlrL-4" edge="1">
          <mxGeometry relative="1" as="geometry" />
        </mxCell>
        <mxCell id="53Lpqn_PctSAP0vNrlrL-9" value="Tiene" style="shape=rhombus;perimeter=rhombusPerimeter;whiteSpace=wrap;html=1;align=center;fillColor=#ffff88;strokeColor=#36393d;" parent="1" vertex="1">
          <mxGeometry x="220" y="75" width="80" height="50" as="geometry" />
        </mxCell>
        <mxCell id="53Lpqn_PctSAP0vNrlrL-30" style="edgeStyle=orthogonalEdgeStyle;rounded=0;orthogonalLoop=1;jettySize=auto;html=1;entryX=0.5;entryY=1;entryDx=0;entryDy=0;" parent="1" source="53Lpqn_PctSAP0vNrlrL-11" target="53Lpqn_PctSAP0vNrlrL-3" edge="1">
          <mxGeometry relative="1" as="geometry" />
        </mxCell>
        <mxCell id="53Lpqn_PctSAP0vNrlrL-31" style="edgeStyle=orthogonalEdgeStyle;rounded=0;orthogonalLoop=1;jettySize=auto;html=1;entryX=0.5;entryY=0;entryDx=0;entryDy=0;" parent="1" source="53Lpqn_PctSAP0vNrlrL-11" target="53Lpqn_PctSAP0vNrlrL-8" edge="1">
          <mxGeometry relative="1" as="geometry" />
        </mxCell>
        <mxCell id="53Lpqn_PctSAP0vNrlrL-11" value="Genera" style="shape=rhombus;perimeter=rhombusPerimeter;whiteSpace=wrap;html=1;align=center;fillColor=#ffff88;strokeColor=#36393d;" parent="1" vertex="1">
          <mxGeometry x="590" y="350" width="80" height="50" as="geometry" />
        </mxCell>
        <mxCell id="53Lpqn_PctSAP0vNrlrL-28" style="edgeStyle=orthogonalEdgeStyle;rounded=0;orthogonalLoop=1;jettySize=auto;html=1;entryX=0.5;entryY=1;entryDx=0;entryDy=0;" parent="1" source="53Lpqn_PctSAP0vNrlrL-12" target="53Lpqn_PctSAP0vNrlrL-6" edge="1">
          <mxGeometry relative="1" as="geometry" />
        </mxCell>
        <mxCell id="53Lpqn_PctSAP0vNrlrL-29" style="edgeStyle=orthogonalEdgeStyle;rounded=0;orthogonalLoop=1;jettySize=auto;html=1;" parent="1" source="53Lpqn_PctSAP0vNrlrL-12" target="53Lpqn_PctSAP0vNrlrL-7" edge="1">
          <mxGeometry relative="1" as="geometry" />
        </mxCell>
        <mxCell id="53Lpqn_PctSAP0vNrlrL-12" value="Brinda" style="shape=rhombus;perimeter=rhombusPerimeter;whiteSpace=wrap;html=1;align=center;fillColor=#ffff88;strokeColor=#36393d;" parent="1" vertex="1">
          <mxGeometry x="170" y="350" width="80" height="50" as="geometry" />
        </mxCell>
        <mxCell id="53Lpqn_PctSAP0vNrlrL-23" style="edgeStyle=orthogonalEdgeStyle;rounded=0;orthogonalLoop=1;jettySize=auto;html=1;" parent="1" source="53Lpqn_PctSAP0vNrlrL-13" edge="1">
          <mxGeometry relative="1" as="geometry">
            <mxPoint x="400" y="122" as="targetPoint" />
            <Array as="points">
              <mxPoint x="400" y="122" />
            </Array>
          </mxGeometry>
        </mxCell>
        <mxCell id="XFTTshYTECg395MuvxWF-5" style="edgeStyle=orthogonalEdgeStyle;rounded=0;orthogonalLoop=1;jettySize=auto;html=1;entryX=1;entryY=0.5;entryDx=0;entryDy=0;" edge="1" parent="1" source="53Lpqn_PctSAP0vNrlrL-13" target="53Lpqn_PctSAP0vNrlrL-6">
          <mxGeometry relative="1" as="geometry" />
        </mxCell>
        <mxCell id="XFTTshYTECg395MuvxWF-6" style="edgeStyle=orthogonalEdgeStyle;rounded=0;orthogonalLoop=1;jettySize=auto;html=1;entryX=0;entryY=0.5;entryDx=0;entryDy=0;" edge="1" parent="1" source="53Lpqn_PctSAP0vNrlrL-13" target="53Lpqn_PctSAP0vNrlrL-3">
          <mxGeometry relative="1" as="geometry" />
        </mxCell>
        <mxCell id="53Lpqn_PctSAP0vNrlrL-13" value="Ingresa" style="shape=rhombus;perimeter=rhombusPerimeter;whiteSpace=wrap;html=1;align=center;fillColor=#ffff88;strokeColor=#36393d;" parent="1" vertex="1">
          <mxGeometry x="345" y="275" width="110" height="50" as="geometry" />
        </mxCell>
        <mxCell id="53Lpqn_PctSAP0vNrlrL-39" value="ID" style="ellipse;whiteSpace=wrap;html=1;align=center;fontStyle=4;fillColor=#f8cecc;strokeColor=#b85450;" parent="1" vertex="1">
          <mxGeometry x="20" y="20" width="50" height="40" as="geometry" />
        </mxCell>
        <mxCell id="53Lpqn_PctSAP0vNrlrL-42" value="ID" style="ellipse;whiteSpace=wrap;html=1;align=center;fontStyle=4;fillColor=#f8cecc;strokeColor=#b85450;" parent="1" vertex="1">
          <mxGeometry x="80" y="330" width="50" height="40" as="geometry" />
        </mxCell>
        <mxCell id="53Lpqn_PctSAP0vNrlrL-43" value="ID" style="ellipse;whiteSpace=wrap;html=1;align=center;fontStyle=4;fillColor=#f8cecc;strokeColor=#b85450;" parent="1" vertex="1">
          <mxGeometry x="80" y="440" width="50" height="40" as="geometry" />
        </mxCell>
        <mxCell id="53Lpqn_PctSAP0vNrlrL-44" value="ID" style="ellipse;whiteSpace=wrap;html=1;align=center;fontStyle=4;fillColor=#f8cecc;strokeColor=#b85450;" parent="1" vertex="1">
          <mxGeometry x="707.5" y="420" width="55" height="40" as="geometry" />
        </mxCell>
        <mxCell id="53Lpqn_PctSAP0vNrlrL-46" value="ID" style="ellipse;whiteSpace=wrap;html=1;align=center;fontStyle=4;fillColor=#f8cecc;strokeColor=#b85450;" parent="1" vertex="1">
          <mxGeometry x="300" y="140" width="50" height="40" as="geometry" />
        </mxCell>
        <mxCell id="53Lpqn_PctSAP0vNrlrL-48" value="ContraseÃ±a" style="ellipse;whiteSpace=wrap;html=1;align=center;" parent="1" vertex="1">
          <mxGeometry x="450" y="135" width="100" height="35" as="geometry" />
        </mxCell>
        <mxCell id="53Lpqn_PctSAP0vNrlrL-50" value="Nombre" style="ellipse;whiteSpace=wrap;html=1;align=center;" parent="1" vertex="1">
          <mxGeometry x="85" y="-10" width="80" height="50" as="geometry" />
        </mxCell>
        <mxCell id="53Lpqn_PctSAP0vNrlrL-51" value="Nombre" style="ellipse;whiteSpace=wrap;html=1;align=center;" parent="1" vertex="1">
          <mxGeometry x="285" y="15" width="80" height="50" as="geometry" />
        </mxCell>
        <mxCell id="53Lpqn_PctSAP0vNrlrL-52" value="Apellido" style="ellipse;whiteSpace=wrap;html=1;align=center;" parent="1" vertex="1">
          <mxGeometry x="330" y="-40" width="80" height="50" as="geometry" />
        </mxCell>
        <mxCell id="53Lpqn_PctSAP0vNrlrL-53" value="Correo" style="ellipse;whiteSpace=wrap;html=1;align=center;" parent="1" vertex="1">
          <mxGeometry x="420" y="-40" width="80" height="50" as="geometry" />
        </mxCell>
        <mxCell id="53Lpqn_PctSAP0vNrlrL-54" value="Fecha de inicio" style="ellipse;whiteSpace=wrap;html=1;align=center;" parent="1" vertex="1">
          <mxGeometry x="450" y="15" width="80" height="50" as="geometry" />
        </mxCell>
        <mxCell id="53Lpqn_PctSAP0vNrlrL-57" value="ID" style="ellipse;whiteSpace=wrap;html=1;align=center;fontStyle=4;fillColor=#f8cecc;strokeColor=#b85450;" parent="1" vertex="1">
          <mxGeometry x="725" y="275" width="55" height="40" as="geometry" />
        </mxCell>
        <mxCell id="53Lpqn_PctSAP0vNrlrL-61" value="Nombre&lt;br&gt;Completo" style="ellipse;whiteSpace=wrap;html=1;align=center;fontStyle=4;" parent="1" vertex="1">
          <mxGeometry x="475" y="440" width="80" height="40" as="geometry" />
        </mxCell>
        <mxCell id="53Lpqn_PctSAP0vNrlrL-62" value="Apellidos" style="ellipse;whiteSpace=wrap;html=1;align=center;fontStyle=4;" parent="1" vertex="1">
          <mxGeometry x="420" y="490" width="80" height="40" as="geometry" />
        </mxCell>
        <mxCell id="53Lpqn_PctSAP0vNrlrL-63" value="Nombre" style="ellipse;whiteSpace=wrap;html=1;align=center;fontStyle=4;" parent="1" vertex="1">
          <mxGeometry x="420" y="400" width="80" height="40" as="geometry" />
        </mxCell>
        <mxCell id="53Lpqn_PctSAP0vNrlrL-64" value="Hora" style="ellipse;whiteSpace=wrap;html=1;align=center;fontStyle=4;" parent="1" vertex="1">
          <mxGeometry x="60" y="200" width="90" height="40" as="geometry" />
        </mxCell>
        <mxCell id="53Lpqn_PctSAP0vNrlrL-66" value="Fecha" style="ellipse;whiteSpace=wrap;html=1;align=center;fontStyle=4;" parent="1" vertex="1">
          <mxGeometry y="280" width="90" height="40" as="geometry" />
        </mxCell>
        <mxCell id="53Lpqn_PctSAP0vNrlrL-67" value="Peso&lt;span style=&quot;color: rgba(0 , 0 , 0 , 0) ; font-family: monospace ; font-size: 0px&quot;&gt;%3CmxGraphModel%3E%3Croot%3E%3CmxCell%20id%3D%220%22%2F%3E%3CmxCell%20id%3D%221%22%20parent%3D%220%22%2F%3E%3CmxCell%20id%3D%222%22%20value%3D%22Fecha%22%20style%3D%22ellipse%3BwhiteSpace%3Dwrap%3Bhtml%3D1%3Balign%3Dcenter%3BfontStyle%3D4%3B%22%20vertex%3D%221%22%20parent%3D%221%22%3E%3CmxGeometry%20x%3D%2240%22%20y%3D%22260%22%20width%3D%2290%22%20height%3D%2240%22%20as%3D%22geometry%22%2F%3E%3C%2FmxCell%3E%3C%2Froot%3E%3C%2FmxGraphModel%3E&lt;/span&gt;" style="ellipse;whiteSpace=wrap;html=1;align=center;fontStyle=4;" parent="1" vertex="1">
          <mxGeometry x="570" y="200" width="90" height="40" as="geometry" />
        </mxCell>
        <mxCell id="53Lpqn_PctSAP0vNrlrL-68" value="Fecha" style="ellipse;whiteSpace=wrap;html=1;align=center;fontStyle=4;" parent="1" vertex="1">
          <mxGeometry x="65" y="500" width="90" height="40" as="geometry" />
        </mxCell>
        <mxCell id="53Lpqn_PctSAP0vNrlrL-69" value="Hora" style="ellipse;whiteSpace=wrap;html=1;align=center;fontStyle=4;" parent="1" vertex="1">
          <mxGeometry x="60" y="390" width="90" height="40" as="geometry" />
        </mxCell>
        <mxCell id="53Lpqn_PctSAP0vNrlrL-70" value="Descripcion" style="ellipse;whiteSpace=wrap;html=1;align=center;fontStyle=4;" parent="1" vertex="1">
          <mxGeometry x="670" y="210" width="90" height="40" as="geometry" />
        </mxCell>
        <mxCell id="53Lpqn_PctSAP0vNrlrL-71" value="Fecha" style="ellipse;whiteSpace=wrap;html=1;align=center;fontStyle=4;" parent="1" vertex="1">
          <mxGeometry x="690" y="330" width="90" height="40" as="geometry" />
        </mxCell>
        <mxCell id="53Lpqn_PctSAP0vNrlrL-72" value="DescripciÃ³n" style="ellipse;whiteSpace=wrap;html=1;align=center;fontStyle=4;" parent="1" vertex="1">
          <mxGeometry x="165" y="180" width="90" height="40" as="geometry" />
        </mxCell>
        <mxCell id="53Lpqn_PctSAP0vNrlrL-73" value="" style="endArrow=none;html=1;rounded=0;exitX=0;exitY=0;exitDx=0;exitDy=0;" parent="1" source="53Lpqn_PctSAP0vNrlrL-7" target="53Lpqn_PctSAP0vNrlrL-69" edge="1">
          <mxGeometry relative="1" as="geometry">
            <mxPoint x="300" y="410" as="sourcePoint" />
            <mxPoint x="460" y="410" as="targetPoint" />
          </mxGeometry>
        </mxCell>
        <mxCell id="53Lpqn_PctSAP0vNrlrL-74" value="" style="endArrow=none;html=1;rounded=0;entryX=1;entryY=0.5;entryDx=0;entryDy=0;" parent="1" source="53Lpqn_PctSAP0vNrlrL-61" target="53Lpqn_PctSAP0vNrlrL-63" edge="1">
          <mxGeometry relative="1" as="geometry">
            <mxPoint x="170" y="450" as="sourcePoint" />
            <mxPoint x="143.42528280230056" y="435.5046997103459" as="targetPoint" />
          </mxGeometry>
        </mxCell>
        <mxCell id="53Lpqn_PctSAP0vNrlrL-75" value="" style="endArrow=none;html=1;rounded=0;exitX=0;exitY=0.5;exitDx=0;exitDy=0;entryX=1;entryY=0.5;entryDx=0;entryDy=0;" parent="1" source="53Lpqn_PctSAP0vNrlrL-7" target="53Lpqn_PctSAP0vNrlrL-43" edge="1">
          <mxGeometry relative="1" as="geometry">
            <mxPoint x="180" y="460" as="sourcePoint" />
            <mxPoint x="153.42528280230056" y="445.5046997103459" as="targetPoint" />
          </mxGeometry>
        </mxCell>
        <mxCell id="53Lpqn_PctSAP0vNrlrL-76" value="" style="endArrow=none;html=1;rounded=0;exitX=0;exitY=0.5;exitDx=0;exitDy=0;entryX=1;entryY=0.5;entryDx=0;entryDy=0;" parent="1" source="53Lpqn_PctSAP0vNrlrL-8" target="53Lpqn_PctSAP0vNrlrL-61" edge="1">
          <mxGeometry relative="1" as="geometry">
            <mxPoint x="190" y="470" as="sourcePoint" />
            <mxPoint x="560" y="456" as="targetPoint" />
          </mxGeometry>
        </mxCell>
        <mxCell id="53Lpqn_PctSAP0vNrlrL-77" value="" style="endArrow=none;html=1;rounded=0;exitX=0.5;exitY=1;exitDx=0;exitDy=0;entryX=1;entryY=0.5;entryDx=0;entryDy=0;" parent="1" source="53Lpqn_PctSAP0vNrlrL-61" target="53Lpqn_PctSAP0vNrlrL-62" edge="1">
          <mxGeometry relative="1" as="geometry">
            <mxPoint x="200" y="480" as="sourcePoint" />
            <mxPoint x="173.42528280230056" y="465.5046997103459" as="targetPoint" />
          </mxGeometry>
        </mxCell>
        <mxCell id="53Lpqn_PctSAP0vNrlrL-78" value="" style="endArrow=none;html=1;rounded=0;exitX=0;exitY=1;exitDx=0;exitDy=0;entryX=0.722;entryY=0;entryDx=0;entryDy=0;entryPerimeter=0;" parent="1" source="53Lpqn_PctSAP0vNrlrL-7" target="53Lpqn_PctSAP0vNrlrL-68" edge="1">
          <mxGeometry relative="1" as="geometry">
            <mxPoint x="210" y="490" as="sourcePoint" />
            <mxPoint x="183.42528280230056" y="475.5046997103459" as="targetPoint" />
          </mxGeometry>
        </mxCell>
        <mxCell id="53Lpqn_PctSAP0vNrlrL-79" value="" style="endArrow=none;html=1;rounded=0;" parent="1" edge="1">
          <mxGeometry relative="1" as="geometry">
            <mxPoint x="680" y="297" as="sourcePoint" />
            <mxPoint x="725" y="297" as="targetPoint" />
          </mxGeometry>
        </mxCell>
        <mxCell id="53Lpqn_PctSAP0vNrlrL-80" value="" style="endArrow=none;html=1;rounded=0;" parent="1" edge="1">
          <mxGeometry relative="1" as="geometry">
            <mxPoint x="710" y="450" as="sourcePoint" />
            <mxPoint x="680" y="460" as="targetPoint" />
          </mxGeometry>
        </mxCell>
        <mxCell id="53Lpqn_PctSAP0vNrlrL-81" value="" style="endArrow=none;html=1;rounded=0;exitX=1;exitY=0;exitDx=0;exitDy=0;" parent="1" source="53Lpqn_PctSAP0vNrlrL-3" target="53Lpqn_PctSAP0vNrlrL-70" edge="1">
          <mxGeometry relative="1" as="geometry">
            <mxPoint x="690" y="307.0000000000002" as="sourcePoint" />
            <mxPoint x="735" y="307.0000000000002" as="targetPoint" />
          </mxGeometry>
        </mxCell>
        <mxCell id="53Lpqn_PctSAP0vNrlrL-82" value="" style="endArrow=none;html=1;rounded=0;entryX=0.5;entryY=1;entryDx=0;entryDy=0;" parent="1" target="53Lpqn_PctSAP0vNrlrL-67" edge="1">
          <mxGeometry relative="1" as="geometry">
            <mxPoint x="615" y="279" as="sourcePoint" />
            <mxPoint x="745" y="317.0000000000002" as="targetPoint" />
          </mxGeometry>
        </mxCell>
        <mxCell id="53Lpqn_PctSAP0vNrlrL-83" value="" style="endArrow=none;html=1;rounded=0;exitX=1;exitY=1;exitDx=0;exitDy=0;entryX=0.074;entryY=0.294;entryDx=0;entryDy=0;entryPerimeter=0;" parent="1" source="53Lpqn_PctSAP0vNrlrL-3" target="53Lpqn_PctSAP0vNrlrL-71" edge="1">
          <mxGeometry relative="1" as="geometry">
            <mxPoint x="710" y="327.0000000000002" as="sourcePoint" />
            <mxPoint x="755" y="327.0000000000002" as="targetPoint" />
          </mxGeometry>
        </mxCell>
        <mxCell id="53Lpqn_PctSAP0vNrlrL-84" value="" style="endArrow=none;html=1;rounded=0;exitX=0;exitY=0;exitDx=0;exitDy=0;entryX=1;entryY=1;entryDx=0;entryDy=0;" parent="1" source="53Lpqn_PctSAP0vNrlrL-6" target="53Lpqn_PctSAP0vNrlrL-64" edge="1">
          <mxGeometry relative="1" as="geometry">
            <mxPoint x="170" y="450" as="sourcePoint" />
            <mxPoint x="143.42528280230056" y="435.5046997103459" as="targetPoint" />
          </mxGeometry>
        </mxCell>
        <mxCell id="53Lpqn_PctSAP0vNrlrL-85" value="" style="endArrow=none;html=1;rounded=0;exitX=0;exitY=0.5;exitDx=0;exitDy=0;entryX=1;entryY=0.5;entryDx=0;entryDy=0;" parent="1" source="53Lpqn_PctSAP0vNrlrL-6" target="53Lpqn_PctSAP0vNrlrL-66" edge="1">
          <mxGeometry relative="1" as="geometry">
            <mxPoint x="180" y="460" as="sourcePoint" />
            <mxPoint x="153.42528280230056" y="445.5046997103459" as="targetPoint" />
          </mxGeometry>
        </mxCell>
        <mxCell id="53Lpqn_PctSAP0vNrlrL-86" value="" style="endArrow=none;html=1;rounded=0;entryX=0.5;entryY=1;entryDx=0;entryDy=0;" parent="1" target="53Lpqn_PctSAP0vNrlrL-72" edge="1">
          <mxGeometry relative="1" as="geometry">
            <mxPoint x="210" y="280" as="sourcePoint" />
            <mxPoint x="163.42528280230056" y="455.5046997103459" as="targetPoint" />
          </mxGeometry>
        </mxCell>
        <mxCell id="53Lpqn_PctSAP0vNrlrL-87" value="" style="endArrow=none;html=1;rounded=0;exitX=0;exitY=1;exitDx=0;exitDy=0;entryX=1;entryY=0;entryDx=0;entryDy=0;" parent="1" source="53Lpqn_PctSAP0vNrlrL-6" target="53Lpqn_PctSAP0vNrlrL-42" edge="1">
          <mxGeometry relative="1" as="geometry">
            <mxPoint x="170" y="310" as="sourcePoint" />
            <mxPoint x="100" y="310" as="targetPoint" />
          </mxGeometry>
        </mxCell>
        <mxCell id="53Lpqn_PctSAP0vNrlrL-88" value="" style="endArrow=none;html=1;rounded=0;entryX=0.75;entryY=0;entryDx=0;entryDy=0;" parent="1" source="53Lpqn_PctSAP0vNrlrL-53" target="53Lpqn_PctSAP0vNrlrL-4" edge="1">
          <mxGeometry relative="1" as="geometry">
            <mxPoint x="625" y="288.9999999999998" as="sourcePoint" />
            <mxPoint x="625" y="250" as="targetPoint" />
          </mxGeometry>
        </mxCell>
        <mxCell id="53Lpqn_PctSAP0vNrlrL-89" value="" style="endArrow=none;html=1;rounded=0;entryX=1;entryY=0;entryDx=0;entryDy=0;exitX=0;exitY=1;exitDx=0;exitDy=0;" parent="1" source="53Lpqn_PctSAP0vNrlrL-54" target="53Lpqn_PctSAP0vNrlrL-4" edge="1">
          <mxGeometry relative="1" as="geometry">
            <mxPoint x="635" y="298.9999999999998" as="sourcePoint" />
            <mxPoint x="635" y="260" as="targetPoint" />
          </mxGeometry>
        </mxCell>
        <mxCell id="53Lpqn_PctSAP0vNrlrL-90" value="" style="endArrow=none;html=1;rounded=0;entryX=0;entryY=0;entryDx=0;entryDy=0;" parent="1" source="53Lpqn_PctSAP0vNrlrL-39" target="53Lpqn_PctSAP0vNrlrL-2" edge="1">
          <mxGeometry relative="1" as="geometry">
            <mxPoint x="60" y="60" as="sourcePoint" />
            <mxPoint x="435" y="90" as="targetPoint" />
          </mxGeometry>
        </mxCell>
        <mxCell id="53Lpqn_PctSAP0vNrlrL-91" value="" style="endArrow=none;html=1;rounded=0;entryX=0.663;entryY=-0.03;entryDx=0;entryDy=0;entryPerimeter=0;" parent="1" target="53Lpqn_PctSAP0vNrlrL-2" edge="1">
          <mxGeometry relative="1" as="geometry">
            <mxPoint x="126" y="40" as="sourcePoint" />
            <mxPoint x="445" y="100" as="targetPoint" />
          </mxGeometry>
        </mxCell>
        <mxCell id="53Lpqn_PctSAP0vNrlrL-92" value="" style="endArrow=none;html=1;rounded=0;entryX=0.25;entryY=0;entryDx=0;entryDy=0;exitX=1;exitY=1;exitDx=0;exitDy=0;" parent="1" source="53Lpqn_PctSAP0vNrlrL-51" target="53Lpqn_PctSAP0vNrlrL-4" edge="1">
          <mxGeometry relative="1" as="geometry">
            <mxPoint x="481.02435005612256" y="39.36247841909562" as="sourcePoint" />
            <mxPoint x="455" y="110" as="targetPoint" />
          </mxGeometry>
        </mxCell>
        <mxCell id="53Lpqn_PctSAP0vNrlrL-93" value="" style="endArrow=none;html=1;rounded=0;entryX=0.5;entryY=0;entryDx=0;entryDy=0;" parent="1" source="53Lpqn_PctSAP0vNrlrL-52" target="53Lpqn_PctSAP0vNrlrL-4" edge="1">
          <mxGeometry relative="1" as="geometry">
            <mxPoint x="491.02435005612256" y="49.36247841909562" as="sourcePoint" />
            <mxPoint x="465" y="120" as="targetPoint" />
          </mxGeometry>
        </mxCell>
        <mxCell id="53Lpqn_PctSAP0vNrlrL-94" value="" style="endArrow=none;html=1;rounded=0;exitX=0;exitY=0;exitDx=0;exitDy=0;" parent="1" source="53Lpqn_PctSAP0vNrlrL-48" edge="1">
          <mxGeometry relative="1" as="geometry">
            <mxPoint x="471.7157287525383" y="67.67766952966372" as="sourcePoint" />
            <mxPoint x="450" y="120" as="targetPoint" />
          </mxGeometry>
        </mxCell>
        <mxCell id="53Lpqn_PctSAP0vNrlrL-95" value="" style="endArrow=none;html=1;rounded=0;entryX=0;entryY=1;entryDx=0;entryDy=0;exitX=0.5;exitY=0;exitDx=0;exitDy=0;" parent="1" source="53Lpqn_PctSAP0vNrlrL-46" target="53Lpqn_PctSAP0vNrlrL-4" edge="1">
          <mxGeometry relative="1" as="geometry">
            <mxPoint x="474.64466094067257" y="150.12563132923538" as="sourcePoint" />
            <mxPoint x="460" y="120" as="targetPoint" />
          </mxGeometry>
        </mxCell>
        <mxCell id="XFTTshYTECg395MuvxWF-1" value="DescripciÃ³n" style="ellipse;whiteSpace=wrap;html=1;align=center;" vertex="1" parent="1">
          <mxGeometry x="-30" y="125" width="80" height="50" as="geometry" />
        </mxCell>
        <mxCell id="XFTTshYTECg395MuvxWF-2" value="" style="endArrow=none;html=1;rounded=0;entryX=0;entryY=1;entryDx=0;entryDy=0;exitX=1;exitY=0;exitDx=0;exitDy=0;" edge="1" parent="1" source="XFTTshYTECg395MuvxWF-1" target="53Lpqn_PctSAP0vNrlrL-2">
          <mxGeometry relative="1" as="geometry">
            <mxPoint x="61.79322675553476" y="69.24747580734902" as="sourcePoint" />
            <mxPoint x="70" y="90" as="targetPoint" />
          </mxGeometry>
        </mxCell>
        <mxCell id="XFTTshYTECg395MuvxWF-3" value="" style="endArrow=none;html=1;rounded=0;" edge="1" parent="1">
          <mxGeometry relative="1" as="geometry">
            <mxPoint x="510" y="100" as="sourcePoint" />
            <mxPoint x="450" y="100" as="targetPoint" />
          </mxGeometry>
        </mxCell>
        <mxCell id="XFTTshYTECg395MuvxWF-4" value="CalificaciÃ³n" style="ellipse;shape=doubleEllipse;margin=3;whiteSpace=wrap;html=1;align=center;" vertex="1" parent="1">
          <mxGeometry x="510" y="80" width="100" height="40" as="geometry" />
        </mxCell>
      </root>
    </mxGraphModel>
  </diagram>
</mxfile>
